<svg xmlns="http://www.w3.org/2000/svg" version="1.1" xmlns:xlink="http://www.w3.org/1999/xlink" xmlns:svgjs="http://svgjs.com/svgjs" width="1920" height="560" preserveAspectRatio="none" viewBox="0 0 1920 560"><g mask="url(&quot;#SvgjsMask1168&quot;)" fill="none"><rect width="1920" height="560" x="0" y="0" fill="rgba(6, 88, 179, 1)"></rect><path d="M0,553.203C109.985,581.026,237.868,579.868,331.326,515.553C424.291,451.577,434.097,322.278,483.209,220.674C533.664,116.292,648.392,23.616,623.885,-89.701C599.166,-204,460.568,-247.979,366.755,-317.795C292.942,-372.728,219.972,-423.215,133.498,-454.652C41.967,-487.928,-51.598,-516.676,-148.292,-505.038C-256.215,-492.049,-377.388,-470.667,-444.425,-385.097C-511.132,-299.948,-481.984,-178.238,-488.881,-70.291C-495.194,28.508,-531.931,134.502,-483.13,220.638C-434.964,305.654,-319.147,315.959,-238.66,371.362C-154.575,429.243,-98.964,528.168,0,553.203" fill="#043974"></path><path d="M1920 1422.403C2079.121 1382.15 2127.285 1180.226 2245.257 1066.1100000000001 2333.862 980.4010000000001 2451.3869999999997 934.998 2525.619 836.577 2614.367 718.909 2744.502 589.959 2712.969 445.988 2681.058 300.29 2470.033 280.505 2378.101 163.053 2278.423 35.70399999999995 2308.368-193.77300000000002 2160.666-259.63300000000004 2017.157-323.624 1857.701-201.47900000000004 1716.872-131.789 1595.868-71.90899999999999 1497.116 15.019999999999982 1405.415 114.10899999999998 1310.809 216.337 1208.528 317.623 1175.699 452.986 1141.2910000000002 594.859 1170.071 742.524 1219.712 879.8109999999999 1272.528 1025.876 1345.675 1167.489 1468.454 1262.62 1597.2730000000001 1362.431 1762.0149999999999 1462.3690000000001 1920 1422.403" fill="#0877f2"></path></g><defs><mask id="SvgjsMask1168"><rect width="1920" height="560" fill="#ffffff"></rect></mask></defs></svg>