<svg width="997" height="420.61854" xmlns="http://www.w3.org/2000/svg" data-name="Layer 1">

 <g>
  <title>Layer 1</title>
  <path id="svg_1" fill="#f0f0f0" d="m304.18918,3.91312c14.47806,-6.13164 32.62707,-5.45739 44.47214,4.88184a72.44174,72.44174 0 0 0 -43.0526,24.90287c-4.20935,5.07579 -8.36266,11.15959 -14.83552,12.41848c-4.02755,0.7834 -8.23535,-0.56485 -11.6736,-2.80365c-3.43836,-2.239 -6.2372,-5.312 -8.99527,-8.34984l-0.96025,-0.35645c9.25751,-12.70864 20.56704,-24.56161 35.0451,-30.69325z"/>
  <path id="svg_2" fill="#fff" d="m348.47986,9.07048a61.91816,61.91816 0 0 0 -37.87218,4.12114a26.66393,26.66393 0 0 0 -7.0754,4.4423a15.293,15.293 0 0 0 -4.23609,6.84373c-0.77225,2.427 -1.28112,4.999 -2.62989,7.19606a9.364,9.364 0 0 1 -6.38838,4.22309c-3.2311,0.61758 -6.4914,0.03735 -9.66,-0.64086c-3.51812,-0.753 -7.16041,-1.59094 -10.73639,-0.7078c-0.43328,0.107 -0.574,-0.57156 -0.14135,-0.6784c6.22159,-1.5365 12.23931,1.88538 18.4648,1.57659c2.90492,-0.14409 5.784,-1.16449 7.52379,-3.61056c1.52135,-2.139 2.04837,-4.79081 2.80905,-7.255a16.31886,16.31886 0 0 1 3.89266,-6.846a24.65047,24.65047 0 0 1 6.8785,-4.69795a60.072,60.072 0 0 1 17.99924,-5.3414a63.01613,63.01613 0 0 1 21.392,0.71793c0.43555,0.09038 0.21235,0.74691 -0.22034,0.65712l-0.00002,0.00001z"/>
  <path id="svg_3" fill="#fff" d="m314.33128,11.25361a9.28971,9.28971 0 0 1 4.88381,-10.99317c0.40243,-0.19195 0.71962,0.42439 0.31665,0.61659a8.60206,8.60206 0 0 0 -4.52206,10.23522c0.1279,0.42717 -0.55123,0.56608 -0.6784,0.14136z"/>
  <path id="svg_4" fill="#fff" d="m299.52568,23.19548a17.90509,17.90509 0 0 0 12.92964,1.75895c0.43364,-0.10547 0.57448,0.57306 0.14135,0.6784a18.624,18.624 0 0 1 -13.45074,-1.8577c-0.38969,-0.21852 -0.00783,-0.797 0.37975,-0.57965z"/>
  <path id="svg_5" fill="#fff" d="m334.18125,7.59832a5.25843,5.25843 0 0 0 2.71376,4.1871c0.39227,0.21347 0.01,0.79174 -0.37975,0.57965a5.89251,5.89251 0 0 1 -3.01241,-4.6254a0.35813,0.35813 0 0 1 0.26853,-0.40988a0.34824,0.34824 0 0 1 0.40987,0.26853z"/>
  <path id="svg_6" fill="#f0f0f0" d="m347.2444,62.01081c-0.24873,-0.12634 -0.49746,-0.25267 -0.7514,-0.37632a69.25114,69.25114 0 0 0 -10.41709,-4.204c-0.27545,-0.09075 -0.556,-0.17858 -0.83346,-0.26123a73.00535,73.00535 0 0 0 -26.72586,-2.85943a70.89779,70.89779 0 0 0 -10.64214,1.66851c-4.83348,1.14 -9.98351,2.76057 -14.77039,2.25217a12.16052,12.16052 0 0 1 -1.48694,-0.23463l-12.8334,-22.19035c-0.00386,-0.06507 -0.0129,-0.12747 -0.0169,-0.19278l-0.55291,-0.86257c0.17754,-0.05516 0.36285,-0.10857 0.54039,-0.16374c0.10285,-0.03243 0.20856,-0.05991 0.31141,-0.09234c0.06947,-0.02006 0.13912,-0.03988 0.20066,-0.06195c0.0231,-0.00676 0.04634,-0.01328 0.06441,-0.01713c0.06154,-0.02206 0.121,-0.036 0.17753,-0.05517q1.55257,-0.45205 3.11689,-0.88385c0.00507,-0.00293 0.00507,-0.00293 0.013,-0.00092a104.24514,104.24514 0 0 1 24.32935,-3.93621c0.24593,-0.007 0.4968,-0.01713 0.7486,-0.014a67.65225,67.65225 0 0 1 11.02122,0.64582a59.80917,59.80917 0 0 1 5.9379,1.16691a49.73353,49.73353 0 0 1 14.30082,6.10634c8.805,5.52862 15.74382,13.81169 18.09608,23.80186c0.05999,0.25558 0.1173,0.50647 0.17223,0.76501z"/>
  <path id="svg_7" fill="#fff" d="m346.93391,62.1238a61.91821,61.91821 0 0 0 -32.72,-19.51117a26.66393,26.66393 0 0 0 -8.32388,-0.71295a15.293,15.293 0 0 0 -7.50268,2.91392c-2.07783,1.47289 -4.03266,3.22012 -6.43235,4.16228a9.364,9.364 0 0 1 -7.64335,-0.47435c-2.95168,-1.45224 -5.20551,-3.87845 -7.32712,-6.32768c-2.35564,-2.7194 -4.75933,-5.58133 -8.14626,-7.02918c-0.41037,-0.17543 -0.11417,-0.80193 0.29558,-0.62677c5.89268,2.519 8.63728,8.87428 13.7939,12.3759c2.40617,1.63392 5.31932,2.55261 8.18113,1.647c2.50253,-0.7919 4.51991,-2.59193 6.61087,-4.10145a16.31872,16.31872 0 0 1 7.22984,-3.12251a24.65019,24.65019 0 0 1 8.32059,0.39029a60.07175,60.07175 0 0 1 17.58727,6.572a63.016,63.016 0 0 1 16.64805,13.45267c0.29334,0.33439 -0.28014,0.72422 -0.57156,0.392l-0.00003,0z"/>
  <path id="svg_8" fill="#fff" d="m318.35379,43.30711a9.28968,9.28968 0 0 1 10.51809,-5.837c0.43688,0.089 0.31906,0.7721 -0.1184,0.683a8.602,8.602 0 0 0 -9.77292,5.44966c-0.15507,0.41807 -0.781,0.1201 -0.62677,-0.29558l0,-0.00008z"/>
  <path id="svg_9" fill="#fff" d="m299.34251,43.92802a17.90511,17.90511 0 0 0 9.26459,9.189c0.40974,0.17688 0.11366,0.80343 -0.29558,0.62677a18.624,18.624 0 0 1 -9.62121,-9.58154c-0.17958,-0.4091 0.47359,-0.64106 0.6522,-0.23419l0,-0.00004z"/>
  <path id="svg_10" fill="#fff" d="m336.40361,52.33961a5.25844,5.25844 0 0 0 -0.35414,4.977c0.18468,0.40662 -0.46872,0.63816 -0.65219,0.23418a5.8925,5.8925 0 0 1 0.37956,-5.5068a0.35813,0.35813 0 0 1 0.46118,-0.16559a0.34823,0.34823 0 0 1 0.16559,0.46117l0,0.00004z"/>
  <polygon id="svg_11" fill="#a0616a" points="851.45 409.096 840.089 409.096 834.684 365.272 851.452 365.273 851.45 409.096"/>
  <path id="svg_12" fill="#2f2e41" d="m854.34782,420.10955l-36.63466,-0.00135l0,-0.46337a14.26,14.26 0 0 1 14.25923,-14.259l0.00091,0l22.3752,0.0009l-0.00068,14.72282z"/>
  <polygon id="svg_13" fill="#a0616a" points="939.916 404.178 928.682 405.876 916.787 363.353 931.514 360.847 939.916 404.178"/>
  <path id="svg_14" fill="#2f2e41" d="m944.42744,414.63444l-36.22322,5.47511l-0.06927,-0.45816a14.26,14.26 0 0 1 11.96745,-16.23038l0.0009,-0.00013l22.12392,-3.34394l2.20022,14.5575z"/>
  <path id="svg_15" fill="#fff" d="m615.83993,420.10955l-339.49122,0l0,-339.491l339.49122,0l0,339.491z"/>
  <path id="svg_16" fill="#f0f0f0" d="m615.83993,420.10955l-339.49122,0l0,-339.491l339.49122,0l0,339.491zm-334.47527,-5.016l329.45934,0l0,-329.45906l-329.45934,0l0,329.45906z"/>
  <rect id="svg_17" fill="#6391ff" height="7.68585" width="217.72637" y="226.56141" x="346.34705"/>
  <rect id="svg_18" fill="#6391ff" height="7.68585" width="217.72637" y="246.54462" x="346.34705"/>
  <rect id="svg_19" fill="#6391ff" height="7.68585" width="217.72637" y="266.52783" x="346.34705"/>
  <circle id="svg_20" fill="#6391ff" r="5.01595" cy="231.53036" cx="333.13117"/>
  <rect id="svg_21" fill="#f0f0f0" height="7.68585" width="217.72637" y="140.45426" x="346.34705"/>
  <rect id="svg_22" fill="#f0f0f0" height="7.68585" width="217.72637" y="160.43747" x="346.34705"/>
  <rect id="svg_23" fill="#f0f0f0" height="7.68585" width="217.72637" y="180.42068" x="346.34705"/>
  <circle id="svg_24" fill="#f0f0f0" r="5.01595" cy="144.58723" cx="333.13117"/>
  <rect id="svg_25" fill="#f0f0f0" height="7.68585" width="217.72637" y="313.50455" x="346.34705"/>
  <rect id="svg_26" fill="#f0f0f0" height="7.68585" width="217.72637" y="333.48776" x="346.34705"/>
  <rect id="svg_27" fill="#f0f0f0" height="7.68585" width="217.72637" y="353.47096" x="346.34705"/>
  <circle id="svg_28" fill="#e5e5e5" r="5.01595" cy="317.63751" cx="333.13117"/>
  <path fill="#fff" d="m798.07762,286.00027l-197.53327,0c-2.95927,-0.00753 -5.35791,-4.91325 -5.36168,-10.97034l0,-146.95422c0,-6.05586 2.40241,-10.96027 5.36168,-10.97034l197.53327,0c2.95927,0.00754 5.35792,4.91325 5.36168,10.97034l0,146.95295c-0.00376,6.05586 -2.4063,10.96403 -5.36168,10.97161z" data-name="Path 138" id="a663a212-5a7a-4ecb-8a2f-6fa6ae0edb66"/>
  <path fill="#e6e6e6" d="m798.07762,286.00027l-197.53327,0c-2.95927,-0.00753 -5.35791,-4.91325 -5.36168,-10.97034l0,-146.95422c0,-6.05586 2.40241,-10.96027 5.36168,-10.97034l197.53327,0c2.95927,0.00754 5.35792,4.91325 5.36168,10.97034l0,146.95295c-0.00376,6.05586 -2.4063,10.96403 -5.36168,10.97161zm-197.53327,-164.50706c-1.77628,0 -3.215,2.9492 -3.21755,6.58242l0,146.953c0,3.63322 1.44119,6.57865 3.21755,6.58241l197.53327,0c1.77629,0 3.215,-2.948 3.21755,-6.58241l0,-146.95292c0,-3.63323 -1.44119,-6.57865 -3.21755,-6.58242l-197.53327,-0.00008z" data-name="Path 138" id="a98f1666-d830-4ea5-aaaf-8bede3f0142e"/>
  <rect id="svg_29" fill="#6391ff" height="3.99647" width="53.1712" y="236.92799" x="672.8845"/>
  <rect id="svg_30" fill="#6391ff" height="3.99647" width="66.91616" y="247.31257" x="665.7702"/>
  <path id="svg_31" fill="#cacaca" d="m734.02879,186.51444a34.7306,34.7306 0 0 1 -51.18006,30.57527l-0.00674,-0.00675a34.71986,34.71986 0 1 1 51.1868,-30.56852z"/>
  <circle id="svg_32" fill="#fff" r="9.43785" cy="175.39126" cx="699.48791"/>
  <path id="svg_33" fill="#fff" d="m715.60306,204.32999a48.645,48.645 0 0 1 -32.5774,-0.12617l-0.00675,-0.00467l7.03115,-13.87924l18.8757,0l6.6773,14.01008z"/>
  <polygon id="svg_34" fill="#3f3d56" points="560.144 338.547 708.36 338.547 708.36 273.559 706.079 273.559 706.079 336.266 560.144 336.266 560.144 338.547"/>
  <circle id="svg_35" fill="#3f3d56" r="12.54135" cy="284.08907" cx="707.21982"/>
  <path fill="#fff" d="m286.07762,196.00027l-197.53327,0c-2.95927,-0.00753 -5.35791,-4.91325 -5.36168,-10.97034l0,-146.95422c0,-6.05586 2.40241,-10.96027 5.36168,-10.97034l197.53327,0c2.95927,0.00754 5.35792,4.91325 5.36168,10.97034l0,146.95295c-0.00376,6.05586 -2.4063,10.96403 -5.36168,10.97161z" data-name="Path 138" id="afd00def-263c-4571-9f5d-7c41b30310dc"/>
  <path fill="#e6e6e6" d="m286.07762,196.00027l-197.53327,0c-2.95927,-0.00753 -5.35791,-4.91325 -5.36168,-10.97034l0,-146.95422c0,-6.05586 2.40241,-10.96027 5.36168,-10.97034l197.53327,0c2.95927,0.00754 5.35792,4.91325 5.36168,10.97034l0,146.95295c-0.00376,6.05586 -2.4063,10.96403 -5.36168,10.97161zm-197.53327,-164.50706c-1.77628,0 -3.215,2.9492 -3.21755,6.58242l0,146.953c0,3.63322 1.44119,6.57865 3.21755,6.58241l197.53327,0c1.77629,0 3.215,-2.948 3.21755,-6.58241l0,-146.95292c0,-3.63323 -1.44119,-6.57865 -3.21755,-6.58242l-197.53327,-0.00008z" data-name="Path 138" id="e92130d0-80d8-429c-a3ca-73c1ffe05a6e"/>
  <path id="svg_36" fill="#3f3d56" d="m231.16362,73.01474a48.94887,48.94887 0 0 0 -33.70073,-15.34982l0,49.05057l33.70073,-33.70075z"/>
  <path id="svg_37" fill="#e4e4e4" d="m231.16362,79.12217l-33.70073,33.70074l47.09766,0a48.92277,48.92277 0 0 0 -13.39693,-33.70074z"/>
  <path id="svg_38" fill="#f0f0f0" d="m244.61086,116.34759a49.22567,49.22567 0 0 1 -0.845,9.11272c-0.04375,0.23795 -0.08987,0.47347 -0.13848,0.709a48.69428,48.69428 0 0 1 -5.68177,14.8892c-0.14322,0.24766 -0.29142,0.49533 -0.4395,0.73814l0,0.00243a49.24571,49.24571 0 0 1 -9.85811,11.66219c-0.19183,0.16753 -0.38366,0.33265 -0.57786,0.49533a48.87984,48.87984 0 0 1 -29.60841,11.44127l0,-49.05028l47.14913,0z"/>
  <path id="svg_39" fill="#cacaca" d="m192.69823,165.44075c0.65194,0 1.3,-0.01663 1.94585,-0.04182l0,-49.0525l-35.673,35.67291a48.92355,48.92355 0 0 0 33.72715,13.42141z"/>
  <path id="svg_40" fill="#6391ff" d="m192.76487,63.72859a49.09429,49.09429 0 0 0 -49.09432,49.09432l51.091,0l0,-49.05056c-0.66263,-0.02651 -1.32755,-0.04376 -1.99668,-0.04376z"/>
  <path id="svg_41" fill="#6391ff" d="m181.05249,116.34759l-10.32186,10.32191l-0.33754,0.33751l-0.00735,0.00728l-9.001,8.99859l-0.34228,0.34237l-9.72467,9.7246l-0.3424,0.34235l0,0.00244l-5.59676,5.59438a48.95279,48.95279 0 0 1 -15.36754,-35.67143l51.0414,0z"/>
  <polygon id="svg_42" fill="#3f3d56" points="346.913 250.547 198.698 250.547 198.698 185.559 200.978 185.559 200.978 248.266 346.913 248.266 346.913 250.547"/>
  <circle id="svg_43" fill="#3f3d56" r="12.54135" cy="196.08907" cx="199.83775"/>
  <path id="svg_44" fill="#a0616a" d="m904.885,191.91688l-12.61508,3.30527l0.83922,20.45258l0.104,37.23786a7.46274,7.46274 0 1 0 9.87661,1.241l3.87651,-37.37427l-2.08126,-24.86244z"/>
  <path id="svg_45" fill="#e4e4e4" d="m908.41494,204.21499l-18.43906,-6.20933l-0.04321,-0.27784c-0.02738,-0.17467 -2.73225,-17.6388 -2.699,-29.62033a9.1795,9.1795 0 0 1 3.05986,-7.099a9.62766,9.62766 0 0 1 10.42151,-1.67609a10.29794,10.29794 0 0 1 6.36589,9.15788l1.33401,35.72471z"/>
  <path id="svg_46" fill="#2f2e41" d="m874.111,202.50153l-28.203,-7.30042l-13.03687,43.90658l-0.46337,163.5693l21.5669,-0.135l9.01547,-132.38857l57.45777,122.32945l23.16845,-2.78022l-50.5072,-131.13345s2.78021,-23.16846 -6.0238,-34.75269l1.85348,-12.0476l-14.82783,-9.26738z"/>
  <path id="svg_47" fill="#e4e4e4" d="m889.77384,215.01276l-2.13449,-0.03349l-43.3413,-17.32385l20.73486,-46.18125l9.84433,1.78922l-1.79216,-7.16864l21.75188,-5.317l3.78456,15.13823l5.58463,5.07624a9.81853,9.81853 0 0 1 2.708,10.36336l-12.86437,38.59358a4.3374,4.3374 0 0 1 -4.276,5.06358l0.00006,0.00002z"/>
  <path id="svg_48" fill="#a0616a" d="m857.17921,180.43207l-11.40235,-6.32862l-13.52723,15.36315l-25.65816,26.98754a7.46276,7.46276 0 1 0 6.28123,7.72229l28.62956,-24.3354l15.67695,-19.40896z"/>
  <path id="svg_49" fill="#e4e4e4" d="m851.23216,191.76045l-9.03683,-17.23025l0.16055,-0.23075c0.101,-0.14489 10.21471,-14.63776 18.51837,-23.27488a9.1797,9.1797 0 0 1 7.11736,-3.01656a9.63282,9.63282 0 0 1 8.69095,5.99026a10.29679,10.29679 0 0 1 -1.727,11.01771l-23.7234,26.74447z"/>
  <circle id="svg_50" fill="#a0616a" r="17.28264" cy="120.67824" cx="878.74342"/>
  <path id="svg_51" fill="#2f2e41" d="m857.94629,110.5444c2.90624,-5.203 4.01828,-7.37644 7.76553,-10.54032c3.3137,-2.79813 7.38967,-3.61986 10.67727,-0.96857a19.68847,19.68847 0 1 1 -11.8795,18.07219a19.85076,19.85076 0 0 1 0.13414,-2.2262c-2.85773,-0.40134 -3.83973,-3.93576 -6.69744,-4.3371z"/>
  <path id="svg_52" fill="#ffb8b8" d="m93.59189,261.63167a6.4925,6.4925 0 0 0 1.54616,-9.83473l8.43715,-84.66573l-14.08832,0.93486l-3.90288,83.37a6.52772,6.52772 0 0 0 8.00789,10.19564l0,-0.00004z"/>
  <path id="svg_53" fill="#2f2e41" d="m83.77941,163.99527l3.69361,28.07242l-0.51275,17.20513l15.49489,1.4187l3.10549,-14.30971l1.7109,-37.88371a11.30528,11.30528 0 0 0 -9.98815,-11.73969l0,0a11.30528,11.30528 0 0 0 -12.51327,9.74714l-0.99072,7.48972z"/>
  <polygon id="svg_54" fill="#ffb7b7" points="143.119 410.998 152.518 410.998 156.989 374.744 143.117 374.744 143.119 410.998"/>
  <path id="svg_55" fill="#2f2e41" d="m140.7212,407.92969l18.5105,-0.00075l0.00075,0a11.797,11.797 0 0 1 11.79634,11.79616l0,0.38333l-30.307,0.00112l-0.00059,-12.17986z"/>
  <polygon id="svg_56" fill="#ffb7b7" points="65.508 410.998 74.907 410.998 79.378 374.744 65.506 374.744 65.508 410.998"/>
  <path id="svg_57" fill="#2f2e41" d="m63.10989,407.92969l18.5105,-0.00075l0.00075,0a11.797,11.797 0 0 1 11.79633,11.79616l0,0.38333l-30.307,0.00112l-0.00058,-12.17986z"/>
  <circle id="svg_58" fill="#ffb8b8" r="20.37842" cy="113.03569" cx="102.05755"/>
  <path id="svg_59" fill="#2f2e41" d="m104.69075,141.6874l-14.14217,1.61624l0,0a37.63345,37.63345 0 0 0 -4.81206,33.98233l10.671,30.8696s-14.81312,29.69632 -14.81312,57.26788s-28.21074,125.98786 -28.21074,125.98786l39.70934,4.14216l17.32652,-104.84141l23.8768,104.41881l27.25759,-4.43728l-15.01278,-136.90432l-9.92048,-45.0613l-0.42259,-21.97511s4.21816,-16.48915 -6.339,-27.04628l-12.88924,-17.96043l-12.27907,-0.05875z"/>
  <path id="svg_60" fill="#ffb8b8" d="m204.38832,214.28062a7.11365,7.11365 0 0 0 -8.6348,-6.66518l-76.90235,-52.6971l-6.52167,14.02828l78.0455,47.65818a7.15225,7.15225 0 0 0 14.01337,-2.32418l-0.00005,0z"/>
  <path id="svg_61" fill="#2f2e41" d="m105.41233,172.28627l28.917,11.23608l16.26046,9.554l9.52373,-14.14014l-12.113,-10.52019l-35.49719,-21.596a12.38688,12.38688 0 0 0 -16.53981,3.41359l0,0a12.38688,12.38688 0 0 0 2.77461,17.15613l6.6742,4.89653z"/>
  <path id="svg_62" fill="#2f2e41" d="m125.81274,105.75793l-29.94542,0l0,-13.05313c6.57268,-2.6112 13.00439,-4.83189 16.89229,0a13.05321,13.05321 0 0 1 13.05313,13.05312l0,0.00001z"/>
  <path id="svg_63" fill="#2f2e41" d="m101.20944,91.40127c-17.90176,0.07922 -22.91271,22.43938 -22.91271,35.09856c0,7.05989 3.1928,9.585 8.20994,10.43935l1.77186,-9.44985l4.15,9.85649c1.40932,0.007 2.88987,-0.02024 4.42478,-0.04874l1.40707,-2.89727l3.13768,2.8453c12.56686,0.0187 30.82879,-1.10348 22.72376,-10.74527c-10.85782,-12.91649 -7.30862,-35.16757 -22.91238,-35.09857z"/>
  <path id="svg_64" fill="#2f2e41" d="m921.77757,161.67169a20.994,20.994 0 0 1 -0.34625,-9.17844c0.83507,-5.88554 2.71349,-11.56345 4.43171,-17.25425c1.71776,-5.691 3.29343,-11.494 3.49213,-17.43517c0.19824,-5.94131 -1.09006,-12.10032 -4.63245,-16.87379c-3.54282,-4.77368 -9.5826,-7.90185 -15.45895,-7.00427c-5.61458,0.85761 -10.51775,5.92216 -10.54679,11.54136c-1.005,1.8186 0.29336,4.30208 2.14223,5.38081c1.939,1.13144 4.27692,1.2816 6.42764,1.925a16.11506,16.11506 0 0 1 9.65743,8.54728a20.83443,20.83443 0 0 1 1.40011,12.97666c-0.84692,4.22885 -2.79587,8.14214 -4.25631,12.20012c-1.46091,4.05783 -2.43752,8.51324 -1.264,12.66322a13.33592,13.33592 0 0 0 14.9457,9.10653a9.8459,9.8459 0 0 1 -5.9922,-6.59506z"/>
  <path id="svg_66" fill="#f0f0f0" d="m768.96389,372.00304c-1.94037,-15.60277 -11.61011,-30.976 -26.49043,-36.05359a72.44169,72.44169 0 0 1 -0.00359,49.73611c-2.28653,6.185 -5.47371,12.8261 -3.32292,19.05963c1.33819,3.87867 4.6119,6.8462 8.27125,8.70172c3.65957,1.85551 7.72093,2.73989 11.73147,3.60657l0.78929,0.65279c6.36666,-14.37625 10.9653,-30.10047 9.02493,-45.70323z"/>
  <path id="svg_67" fill="#fff" d="m742.3258,336.24448a61.91811,61.91811 0 0 1 15.39275,34.84751a26.66378,26.66378 0 0 1 -0.3033,8.34885a15.29311,15.29311 0 0 1 -3.80357,7.09323c-1.71435,1.88356 -3.68607,3.61171 -4.9127,5.8792a9.364,9.364 0 0 0 -0.45748,7.64439c1.083,3.1062 3.21751,5.638 5.39092,8.0414c2.41317,2.66848 4.962,5.402 5.98775,8.93967c0.12429,0.42864 0.78213,0.21073 0.658,-0.21727c-1.78468,-6.155 -7.75955,-9.65115 -10.609,-15.19488c-1.32958,-2.5868 -1.88766,-5.59 -0.64119,-8.32061c1.09,-2.38782 3.12171,-4.17164 4.874,-6.06379a16.31878,16.31878 0 0 0 3.97748,-6.79707a24.6502,24.6502 0 0 0 0.62317,-8.3064a60.07148,60.07148 0 0 0 -4.38728,-18.25527a63.016,63.016 0 0 0 -11.3311,-18.15868c-0.29629,-0.33179 -0.75288,0.19011 -0.45853,0.51972l0.00008,0z"/>
  <path id="svg_68" fill="#fff" d="m757.532,366.89838a9.2897,9.2897 0 0 0 7.07129,-9.73129c-0.03531,-0.44446 -0.72764,-0.41048 -0.69228,0.03457a8.60206,8.60206 0 0 1 -6.59628,9.03869c-0.43381,0.10314 -0.21406,0.76058 0.21727,0.658l0,0.00003z"/>
  <path id="svg_69" fill="#fff" d="m754.60671,385.69351a17.90514,17.90514 0 0 1 -7.99572,-10.312c-0.1258,-0.42819 -0.78367,-0.2104 -0.658,0.21727a18.62407,18.62407 0 0 0 8.34207,10.7137c0.38426,0.22794 0.69384,-0.39223 0.31167,-0.61893l-0.00002,-0.00004z"/>
  <path id="svg_70" fill="#fff" d="m750.75861,347.88515a5.25841,5.25841 0 0 1 -4.9832,-0.253c-0.38118,-0.23269 -0.69036,0.38775 -0.31166,0.61893a5.89245,5.89245 0 0 0 5.51213,0.29206a0.35812,0.35812 0 0 0 0.22038,-0.43764a0.34824,0.34824 0 0 0 -0.43765,-0.22038l0,0.00003z"/>
  <path id="svg_71" fill="#f0f0f0" d="m697.11616,363.81789c0.23388,0.15206 0.46777,0.30413 0.70194,0.46205a69.25183,69.25183 0 0 1 8.85445,6.91292c0.21647,0.193 0.43293,0.39188 0.6434,0.59071a73.00551,73.00551 0 0 1 15.85526,21.70389a70.89709,70.89709 0 0 1 3.8835,10.04776c1.433,4.75485 2.60841,10.02433 5.445,13.91362a12.16343,12.16343 0 0 0 0.94753,1.1697l25.63412,0c0.05825,-0.02924 0.1168,-0.05265 0.17534,-0.08189l1.02349,0.0468c-0.04112,-0.1813 -0.08767,-0.36846 -0.12879,-0.54976c-0.02342,-0.10527 -0.05255,-0.21054 -0.076,-0.31581c-0.01742,-0.07018 -0.03513,-0.14039 -0.04684,-0.20472c-0.00571,-0.02338 -0.01171,-0.04676 -0.01742,-0.06432c-0.01171,-0.06433 -0.02941,-0.12284 -0.04112,-0.18131q-0.38595,-1.57031 -0.79532,-3.14065c0,-0.00585 0,-0.00585 -0.00571,-0.01171a104.24442,104.24442 0 0 0 -8.77278,-23.03148c-0.11709,-0.21639 -0.23389,-0.43864 -0.36268,-0.655a67.65309,67.65309 0 0 0 -6.07669,-9.21728a59.81081,59.81081 0 0 0 -3.98288,-4.556a49.734,49.734 0 0 0 -12.44553,-9.32255c-9.194,-4.85426 -19.83814,-6.71409 -29.66383,-3.74888c-0.25126,0.07602 -0.49714,0.15202 -0.74844,0.23391z"/>
  <path id="svg_72" fill="#fff" d="m697.17379,364.14327a61.91817,61.91817 0 0 1 33.27086,18.55628a26.66424,26.66424 0 0 1 4.78442,6.8487a15.29316,15.29316 0 0 1 1.23367,7.95356c-0.23478,2.53608 -0.76862,5.103 -0.38283,7.652a9.36394,9.36394 0 0 0 4.23718,6.37905c2.73485,1.82809 5.96347,2.56449 9.14582,3.17489c3.53339,0.67775 7.21422,1.32573 10.16319,3.5328c0.35731,0.26741 0.75135,-0.30264 0.39458,-0.56966c-5.1307,-3.83992 -12.00623,-3.03412 -17.619,-5.74494c-2.619,-1.26491 -4.87274,-3.32677 -5.52154,-6.25749c-0.56735,-2.56279 -0.01911,-5.21031 0.2408,-7.77609a16.31878,16.31878 0 0 0 -0.91651,-7.82181a24.65023,24.65023 0 0 0 -4.50345,-7.00737a60.07156,60.07156 0 0 0 -14.49398,-11.9344a63.01618,63.01618 0 0 0 -19.98,-7.67659c-0.43633,-0.08652 -0.48668,0.60508 -0.0532,0.691l-0.00001,0.00007z"/>
  <path id="svg_73" fill="#fff" d="m727.77088,379.46346a9.28969,9.28969 0 0 0 -0.21289,-12.0273c-0.29578,-0.33362 -0.82811,0.11035 -0.53193,0.44441a8.60206,8.60206 0 0 1 0.17516,11.18831c-0.28428,0.34353 0.287,0.73616 0.56966,0.39458z"/>
  <path id="svg_74" fill="#fff" d="m736.75114,396.23157a17.90515,17.90515 0 0 1 -12.59269,-3.41962c-0.35824,-0.26614 -0.7524,0.30383 -0.39459,0.56966a18.62407,18.62407 0 0 0 13.11107,3.53178c0.444,-0.04936 0.31784,-0.73091 -0.12379,-0.68182z"/>
  <path id="svg_75" fill="#fff" d="m710.9154,368.36052a5.25841,5.25841 0 0 1 -4.13111,2.79826c-0.44445,0.0437 -0.31776,0.72524 0.12379,0.68182a5.89252,5.89252 0 0 0 4.577,-3.08549a0.35813,0.35813 0 0 0 -0.08754,-0.48212a0.34823,0.34823 0 0 0 -0.48212,0.08753l-0.00002,0z"/>
  <path id="svg_76" fill="#f0f0f0" d="m192.09368,372.00304c1.94037,-15.60277 11.61012,-30.976 26.49043,-36.05359a72.44169,72.44169 0 0 0 0.00359,49.73611c2.28653,6.185 5.47371,12.8261 3.32292,19.05963c-1.33819,3.87867 -4.6119,6.8462 -8.27124,8.70172c-3.65958,1.85551 -7.72094,2.73989 -11.73147,3.60657l-0.7893,0.65279c-6.36661,-14.37625 -10.96529,-30.10047 -9.02493,-45.70323z"/>
  <path id="svg_77" fill="#fff" d="m218.73177,336.24448a61.91818,61.91818 0 0 0 -15.39277,34.84751a26.66408,26.66408 0 0 0 0.3033,8.34885a15.29311,15.29311 0 0 0 3.80357,7.09323c1.71435,1.88356 3.68607,3.61171 4.91271,5.8792a9.364,9.364 0 0 1 0.45747,7.64439c-1.083,3.1062 -3.2175,5.638 -5.39092,8.0414c-2.41317,2.66848 -4.962,5.402 -5.98775,8.93967c-0.12429,0.42864 -0.78213,0.21073 -0.658,-0.21727c1.78468,-6.155 7.75956,-9.65115 10.609,-15.19488c1.32959,-2.5868 1.88766,-5.59 0.6412,-8.32061c-1.09,-2.38782 -3.12171,-4.17164 -4.874,-6.06379a16.31881,16.31881 0 0 1 -3.97749,-6.79707a24.6502,24.6502 0 0 1 -0.62317,-8.3064a60.07148,60.07148 0 0 1 4.38728,-18.25527a63.01586,63.01586 0 0 1 11.33111,-18.15868c0.29628,-0.33179 0.75288,0.19011 0.45852,0.51972l-0.00006,0z"/>
  <path id="svg_78" fill="#fff" d="m203.52555,366.89838a9.28968,9.28968 0 0 1 -7.07129,-9.73129c0.0353,-0.44446 0.72763,-0.41048 0.69228,0.03457a8.602,8.602 0 0 0 6.59628,9.03869c0.43381,0.10314 0.21406,0.76058 -0.21727,0.658l0,0.00003z"/>
  <path id="svg_79" fill="#fff" d="m206.45087,385.69351a17.90513,17.90513 0 0 0 7.99571,-10.312c0.1258,-0.42819 0.78368,-0.2104 0.658,0.21727a18.62408,18.62408 0 0 1 -8.34208,10.7137c-0.38426,0.22794 -0.69384,-0.39223 -0.31166,-0.61893l0.00003,-0.00004z"/>
  <path id="svg_80" fill="#fff" d="m210.299,347.88515a5.25841,5.25841 0 0 0 4.9832,-0.253c0.38119,-0.23269 0.69037,0.38775 0.31167,0.61893a5.89247,5.89247 0 0 1 -5.51214,0.29206a0.35812,0.35812 0 0 1 -0.22038,-0.43764a0.34824,0.34824 0 0 1 0.43765,-0.22038l0,0.00003z"/>
  <path id="svg_81" fill="#f0f0f0" d="m263.94141,363.81789c-0.23388,0.15206 -0.46776,0.30413 -0.70193,0.46205a69.25122,69.25122 0 0 0 -8.85446,6.91292c-0.21646,0.193 -0.43293,0.39188 -0.64339,0.59071a73.00534,73.00534 0 0 0 -15.85526,21.70389a70.89709,70.89709 0 0 0 -3.8835,10.04776c-1.433,4.75485 -2.60842,10.02433 -5.445,13.91362a12.16343,12.16343 0 0 1 -0.94753,1.1697l-25.63412,0c-0.05826,-0.02924 -0.1168,-0.05265 -0.17535,-0.08189l-1.02349,0.0468c0.04113,-0.1813 0.08767,-0.36846 0.1288,-0.54976c0.02341,-0.10527 0.05254,-0.21054 0.076,-0.31581c0.01742,-0.07018 0.03512,-0.14039 0.04683,-0.20472c0.00571,-0.02338 0.01171,-0.04676 0.01742,-0.06432c0.01171,-0.06433 0.02942,-0.12284 0.04112,-0.18131q0.386,-1.57031 0.79532,-3.14065c0,-0.00585 0,-0.00585 0.00572,-0.01171a104.24442,104.24442 0 0 1 8.77278,-23.03148c0.11708,-0.21639 0.23388,-0.43864 0.36267,-0.655a67.65222,67.65222 0 0 1 6.0767,-9.21728a59.80641,59.80641 0 0 1 3.98288,-4.556a49.7339,49.7339 0 0 1 12.44552,-9.32255c9.194,-4.85426 19.83814,-6.71409 29.66383,-3.74888c0.25126,0.07602 0.49714,0.15202 0.74844,0.23391z"/>
  <path id="svg_82" fill="#fff" d="m263.88378,364.14327a61.91811,61.91811 0 0 0 -33.27085,18.55628a26.664,26.664 0 0 0 -4.78442,6.8487a15.29306,15.29306 0 0 0 -1.23368,7.95356c0.23478,2.53608 0.76863,5.103 0.38284,7.652a9.364,9.364 0 0 1 -4.23718,6.37905c-2.73486,1.82809 -5.96348,2.56449 -9.14583,3.17489c-3.53339,0.67775 -7.21421,1.32573 -10.16318,3.5328c-0.35731,0.26741 -0.75136,-0.30264 -0.39459,-0.56966c5.1307,-3.83992 12.00623,-3.03412 17.619,-5.74494c2.619,-1.26491 4.87273,-3.32677 5.52153,-6.25749c0.56735,-2.56279 0.01911,-5.21031 -0.2408,-7.77609a16.3189,16.3189 0 0 1 0.91651,-7.82181a24.65005,24.65005 0 0 1 4.50346,-7.00737a60.07132,60.07132 0 0 1 14.49393,-11.93437a63.01632,63.01632 0 0 1 19.98,-7.67659c0.43632,-0.08652 0.48667,0.60508 0.05319,0.691l0.00007,0.00004z"/>
  <path id="svg_83" fill="#fff" d="m233.2867,379.46346a9.2897,9.2897 0 0 1 0.21288,-12.0273c0.29579,-0.33362 0.82811,0.11035 0.53193,0.44441a8.60207,8.60207 0 0 0 -0.17516,11.18831c0.28428,0.34353 -0.287,0.73616 -0.56965,0.39458z"/>
  <path id="svg_84" fill="#fff" d="m224.30643,396.23157a17.90514,17.90514 0 0 0 12.59269,-3.41962c0.35825,-0.26614 0.7524,0.30383 0.39459,0.56966a18.62406,18.62406 0 0 1 -13.11107,3.53178c-0.444,-0.04936 -0.31784,-0.73091 0.12379,-0.68182z"/>
  <path id="svg_85" fill="#fff" d="m250.14217,368.36052a5.25842,5.25842 0 0 0 4.13111,2.79826c0.44445,0.0437 0.31777,0.72524 -0.12379,0.68182a5.89249,5.89249 0 0 1 -4.577,-3.08549a0.35812,0.35812 0 0 1 0.08753,-0.48212a0.34823,0.34823 0 0 1 0.48212,0.08753l0.00003,0z"/>
 </g>
</svg>