<svg xmlns="http://www.w3.org/2000/svg" version="1.1" xmlnsXlink="http://www.w3.org/1999/xlink" xmlnsSvgjs="http://svgjs.com/svgjs" width="1440" height="560" preserveAspectRatio="none" viewBox="0 0 1440 560"><g mask="url(&quot;#SvgjsMask1084&quot;)" fill="none"><rect width="1440" height="560" x="0" y="0" fill="rgba(0, 0, 0, 1)"></rect><path d="M 0,69 C 72,91.6 216,177 360,182 C 504,187 576,86.6 720,94 C 864,101.4 936,228 1080,219 C 1224,210 1368,83 1440,49L1440 560L0 560z" fill="rgba(0, 71, 150, 1)"></path><path d="M 0,543 C 57.6,503 172.8,341.8 288,343 C 403.2,344.2 460.8,535.2 576,549 C 691.2,562.8 748.8,413.8 864,412 C 979.2,410.2 1036.8,550.4 1152,540 C 1267.2,529.6 1382.4,396 1440,360L1440 560L0 560z" fill="rgba(0, 0, 0, 1)"></path></g><defs><mask id="SvgjsMask1084"><rect width="1440" height="560" fill="#ffffff"></rect></mask></defs></svg>